<svg width="20" height="22" viewBox="0 0 20 22" fill="none" xmlns="http://www.w3.org/2000/svg">
<path d="M8.6139 12.0455V11.8239C8.6139 11.3161 8.65391 10.9113 8.73393 10.6097C8.81395 10.3081 8.93244 10.0665 9.0894 9.88494C9.24636 9.70028 9.43871 9.53409 9.66646 9.38636C9.86343 9.2571 10.0389 9.13246 10.1927 9.01243C10.3497 8.8924 10.4728 8.76468 10.5621 8.62926C10.6544 8.49384 10.7006 8.33996 10.7006 8.16761C10.7006 8.01373 10.6636 7.87831 10.5898 7.76136C10.5159 7.64441 10.4159 7.55362 10.2897 7.48899C10.1635 7.42436 10.0235 7.39204 9.86958 7.39204C9.70339 7.39204 9.54951 7.43052 9.40794 7.50746C9.26944 7.5844 9.15711 7.69058 9.07093 7.82599C8.98784 7.96141 8.94629 8.11837 8.94629 8.29688H6.58265C6.58881 7.61979 6.74269 7.07043 7.0443 6.64879C7.34591 6.22408 7.74601 5.91323 8.24458 5.71626C8.74316 5.51622 9.29099 5.41619 9.88805 5.41619C10.5467 5.41619 11.1345 5.51314 11.6515 5.70703C12.1686 5.89785 12.5764 6.18714 12.8749 6.57493C13.1734 6.95964 13.3227 7.44129 13.3227 8.01989C13.3227 8.39228 13.2581 8.72005 13.1288 9.0032C13.0026 9.28326 12.8257 9.53101 12.5979 9.74645C12.3733 9.95881 12.1101 10.1527 11.8085 10.3281C11.5869 10.4574 11.4007 10.5913 11.2499 10.7298C11.0991 10.8652 10.9852 11.0206 10.9083 11.196C10.8314 11.3684 10.7929 11.5777 10.7929 11.8239V12.0455H8.6139ZM9.74032 15.1477C9.38332 15.1477 9.07709 15.0231 8.82164 14.7738C8.56928 14.5214 8.44463 14.2152 8.44771 13.8551C8.44463 13.5043 8.56928 13.2042 8.82164 12.9549C9.07709 12.7056 9.38332 12.581 9.74032 12.581C10.0789 12.581 10.3774 12.7056 10.6359 12.9549C10.8975 13.2042 11.0299 13.5043 11.0329 13.8551C11.0299 14.0952 10.9668 14.3137 10.8437 14.5107C10.7236 14.7045 10.5667 14.86 10.3728 14.9769C10.1789 15.0908 9.96807 15.1477 9.74032 15.1477Z" fill="white"/>
<circle cx="10" cy="10" r="9" stroke="white" stroke-width="2"/>
</svg>
